<svg xmlns="http://www.w3.org/2000/svg" viewBox="0 0 72 90" width="80" height="80"><g fill="#575757"><path d="M50.6 38.2l-8.3-8.3c-.7-.7-1.9-.7-2.6 0L27.3 42.3c-.7.7-1.9.7-2.6 0l-4.4-4.4c-.7-.7-1.7-.7-2.4-.2L3 48.7c-.5.4-.7.9-.7 1.5v16.9c0 1 .8 1.9 1.9 1.9H68c1 0 1.9-.8 1.9-1.9V26.2c0-1.7-2-2.5-3.2-1.3L53.2 38.2c-.7.7-1.9.7-2.6 0zM65.4 3.2c-1.4.3-2.6 1.4-3.2 2.7-.6 1.4-.5 2.7 0 3.8.1.1 0 .2-.1.3l-7.7 7.7c-.1.1-.3.1-.4.1-.7-.4-1.4-.6-2.2-.6-.7 0-1.5.2-2.1.5-.1.1-.3 0-.3 0l-4-4c-.1-.1-.1-.2-.1-.3.7-1.8.4-3.9-2.1-5.6-.7-.5-1.6-.8-2.4-.8-2.5.1-4.5 2.1-4.5 4.7 0 .6.1 1.1.3 1.6.1.1 0 .3-.1.4l-8.4 8.4c-.1.1-.3.1-.4.1-.6-.3-1.3-.5-2-.5s-1.4.2-2 .5c-.1.1-.3.1-.4-.1l-4-3.6c-.1-.1-.1-.2-.1-.3.6-1.4.5-2.9-.6-4.4-1-1.2-2.4-2-4-1.9-2.5.1-4.4 2.2-4.4 4.7 0 .5.1.9.2 1.4 0 .1 0 .2-.1.3l-2 1.5c-.1.1-.2.1-.3 0-1-.7-2.3-1-3.6-.7-1.8.4-3.2 1.9-3.6 3.7-.5 2.8 1.5 5.3 4.2 5.5 2 .2 3.7-1 4.6-2.8.6-1.2.5-2.2.3-3.1 0-.1 0-.3.1-.4l1.9-1.4c.1-.1.3-.1.4 0 .7.5 1.6.7 2.5.7.8 0 1.5-.2 2.2-.6.1-.1.2 0 .3 0l3.9 3.5c.1.1.2.3.1.4-.5 1.2-.5 2.5.2 3.9.7 1.3 2 2.3 3.5 2.5 2.9.4 5.3-1.8 5.3-4.6 0-.6-.1-1.2-.4-1.8-.1-.1 0-.3.1-.4l8.3-8.3c.1-.1.3-.1.4-.1.7.3 1.4.5 2.1.5.8 0 1.5-.2 2.2-.6.1-.1.2 0 .3 0l3.9 3.9c.1.1.1.2.1.3-.6 1.5-.5 3.2.9 4.8.9 1 2.1 1.7 3.4 1.7 2.6 0 4.7-2.1 4.7-4.7 0-.6-.1-1.1-.3-1.6 0-.1 0-.3.1-.4l7.9-7.9c.1-.1.2-.1.3-.1 1.1.5 2.4.7 3.8.1 1.3-.6 2.4-1.8 2.7-3.2 1-3.2-2-6.2-5.4-5.4zM5.5 25.4c-1 0-1.8-.8-1.8-1.8s.8-1.8 1.8-1.8 1.8.8 1.8 1.8c.1 1-.8 1.8-1.8 1.8zm8-7.8c-.2-.2-.4-.6-.4-1.1 0-1 .8-1.8 1.8-1.8s1.8.8 1.8 1.8c0 .6-.3 1-.5 1.2-.7.9-2.1.8-2.7-.1zm12.2 10.6c-1 0-1.8-.8-1.8-1.8 0-.5.2-.9.5-1.3.7-.7 2-.7 2.7.1.2.2.5.7.5 1.2 0 1-.9 1.8-1.9 1.8zm13.9-15.3c-.2-.2-.4-.6-.4-1.2 0-1 .8-1.8 1.8-1.8s1.8.8 1.8 1.8c0 .5-.2.9-.4 1.2-.7.9-2.1.9-2.8 0zm12.3 10.9c-1 0-1.8-.8-1.8-1.8 0-.6.3-1 .5-1.2.7-.8 2.1-.8 2.8 0 .2.2.4.6.4 1.2-.1.9-.9 1.8-1.9 1.8zM66.5 9.6c-1 0-1.8-.8-1.8-1.8S65.5 6 66.5 6s1.8.8 1.8 1.8c0 .9-.8 1.8-1.8 1.8z"/></g></svg>