<svg xmlns="http://www.w3.org/2000/svg" xmlns:xlink="http://www.w3.org/1999/xlink" version="1.1" x="0px" y="0px" viewBox="0 0 72 90" enable-background="new 0 0 72 72" width="80px" height="80px" xml:space="preserve"><g><path fill="#575757" d="M50.6,38.2l-8.3-8.3c-0.7-0.7-1.9-0.7-2.6,0L27.3,42.3c-0.7,0.7-1.9,0.7-2.6,0l-4.4-4.4   c-0.7-0.7-1.7-0.7-2.4-0.2L3,48.7c-0.5,0.4-0.7,0.9-0.7,1.5v16.9c0,1,0.8,1.9,1.9,1.9h63.8c1,0,1.9-0.8,1.9-1.9V26.2   c0-1.7-2-2.5-3.2-1.3L53.2,38.2C52.5,38.9,51.3,38.9,50.6,38.2z"/><path fill="#575757" d="M65.4,3.2c-1.4,0.3-2.6,1.4-3.2,2.7c-0.6,1.4-0.5,2.7,0,3.8c0.1,0.1,0,0.2-0.1,0.3l-7.7,7.7   c-0.1,0.1-0.3,0.1-0.4,0.1c-0.7-0.4-1.4-0.6-2.2-0.6c-0.7,0-1.5,0.2-2.1,0.5c-0.1,0.1-0.3,0-0.3,0l-4-4c-0.1-0.1-0.1-0.2-0.1-0.3   c0.7-1.8,0.4-3.9-2.1-5.6c-0.7-0.5-1.6-0.8-2.4-0.8c-2.5,0.1-4.5,2.1-4.5,4.7c0,0.6,0.1,1.1,0.3,1.6c0.1,0.1,0,0.3-0.1,0.4   l-8.4,8.4c-0.1,0.1-0.3,0.1-0.4,0.1c-0.6-0.3-1.3-0.5-2-0.5c-0.7,0-1.4,0.2-2,0.5c-0.1,0.1-0.3,0.1-0.4-0.1l-4-3.6   c-0.1-0.1-0.1-0.2-0.1-0.3c0.6-1.4,0.5-2.9-0.6-4.4c-1-1.2-2.4-2-4-1.9c-2.5,0.1-4.4,2.2-4.4,4.7c0,0.5,0.1,0.9,0.2,1.4   c0,0.1,0,0.2-0.1,0.3l-2,1.5c-0.1,0.1-0.2,0.1-0.3,0c-1-0.7-2.3-1-3.6-0.7c-1.8,0.4-3.2,1.9-3.6,3.7c-0.5,2.8,1.5,5.3,4.2,5.5   c2,0.2,3.7-1,4.6-2.8c0.6-1.2,0.5-2.2,0.3-3.1c0-0.1,0-0.3,0.1-0.4l1.9-1.4c0.1-0.1,0.3-0.1,0.4,0c0.7,0.5,1.6,0.7,2.5,0.7   c0.8,0,1.5-0.2,2.2-0.6c0.1-0.1,0.2,0,0.3,0l3.9,3.5c0.1,0.1,0.2,0.3,0.1,0.4c-0.5,1.2-0.5,2.5,0.2,3.9c0.7,1.3,2,2.3,3.5,2.5   c2.9,0.4,5.3-1.8,5.3-4.6c0-0.6-0.1-1.2-0.4-1.8c-0.1-0.1,0-0.3,0.1-0.4l8.3-8.3c0.1-0.1,0.3-0.1,0.4-0.1c0.7,0.3,1.4,0.5,2.1,0.5   c0.8,0,1.5-0.2,2.2-0.6c0.1-0.1,0.2,0,0.3,0l3.9,3.9c0.1,0.1,0.1,0.2,0.1,0.3c-0.6,1.5-0.5,3.2,0.9,4.8c0.9,1,2.1,1.7,3.4,1.7   c2.6,0,4.7-2.1,4.7-4.7c0-0.6-0.1-1.1-0.3-1.6c0-0.1,0-0.3,0.1-0.4l7.9-7.9c0.1-0.1,0.2-0.1,0.3-0.1c1.1,0.5,2.4,0.7,3.8,0.1   c1.3-0.6,2.4-1.8,2.7-3.2C71.8,5.4,68.8,2.4,65.4,3.2z M5.5,25.4c-1,0-1.8-0.8-1.8-1.8c0-1,0.8-1.8,1.8-1.8s1.8,0.8,1.8,1.8   C7.4,24.6,6.5,25.4,5.5,25.4z M13.5,17.6C13.5,17.6,13.5,17.6,13.5,17.6c-0.2-0.2-0.4-0.6-0.4-1.1c0-1,0.8-1.8,1.8-1.8   s1.8,0.8,1.8,1.8c0,0.6-0.3,1-0.5,1.2c0,0,0,0,0,0C15.5,18.6,14.1,18.5,13.5,17.6z M25.7,28.2c-1,0-1.8-0.8-1.8-1.8   c0-0.5,0.2-0.9,0.5-1.3l0,0c0.7-0.7,2-0.7,2.7,0.1l0,0l0,0c0.2,0.2,0.5,0.7,0.5,1.2C27.6,27.4,26.7,28.2,25.7,28.2z M39.6,12.9   C39.6,12.9,39.6,12.9,39.6,12.9L39.6,12.9c-0.2-0.2-0.4-0.6-0.4-1.2c0-1,0.8-1.8,1.8-1.8c1,0,1.8,0.8,1.8,1.8   c0,0.5-0.2,0.9-0.4,1.2l0,0C41.7,13.8,40.3,13.8,39.6,12.9z M51.9,23.8c-1,0-1.8-0.8-1.8-1.8c0-0.6,0.3-1,0.5-1.2l0,0   c0.7-0.8,2.1-0.8,2.8,0c0,0,0,0,0,0c0.2,0.2,0.4,0.6,0.4,1.2C53.7,22.9,52.9,23.8,51.9,23.8z M66.5,9.6c-1,0-1.8-0.8-1.8-1.8   c0-1,0.8-1.8,1.8-1.8c1,0,1.8,0.8,1.8,1.8C68.3,8.7,67.5,9.6,66.5,9.6z"/></g></svg>
